<svg xmlns="http://www.w3.org/2000/svg" width="256" height="256" viewBox="0 0 100 100"><rect width="100" height="100" rx="50" fill="#19447e"></rect><path fill="#fff" d="M42.25 86L42.25 86Q36.65 86 31.90 84.05Q27.15 82.10 23.60 78.40Q20.05 74.70 18.05 69.35Q16.05 64 16.05 57.30L16.05 57.30Q16.05 48.20 19.65 40.30Q23.25 32.40 29.45 26.50Q35.65 20.60 43.40 17.30Q51.15 14 59.55 14L59.55 14Q68.65 14 75.25 18.15Q81.85 22.30 83.95 29.50L83.95 29.50L67.15 40.60Q66.15 36.40 62.80 33.85Q59.45 31.30 55.15 31.30L55.15 31.30Q51.45 31.30 48 33.10Q44.55 34.90 41.90 38.15Q39.25 41.40 37.70 45.65Q36.15 49.90 36.15 54.80L36.15 54.80Q36.15 58.90 37.50 62.05Q38.85 65.20 41.45 66.95Q44.05 68.70 47.65 68.70L47.65 68.70Q52.05 68.70 56.50 66.35Q60.95 64 65.05 59.70L65.05 59.70L60.95 78.70Q56.35 82.40 51.80 84.20Q47.25 86 42.25 86ZM58.65 85.50L63.65 61.70L51.45 61.70L54.35 47.70L82.75 47.70L74.65 85.50L58.65 85.50Z"></path></svg>